<?xml version="1.0" standalone="no"?>
<!DOCTYPE svg PUBLIC "-//W3C//DTD SVG 1.1//EN" "http://www.w3.org/Graphics/SVG/1.1/DTD/svg11.dtd" >
<svg xmlns="http://www.w3.org/2000/svg">
<metadata>
This is a custom SVG webfont generated by Font Squirrel.
Copyright   : c 20012010 Typodermic Fonts This font is not freely distributable Visit typodermiccom for more info
Designer    : Ray Larabie
Foundry     : Ray Larabie
Foundry URL : httpwwwtypodermiccom
</metadata>
<defs>
<font id="PakenhamRegular" horiz-adv-x="1019" >
<font-face units-per-em="2048" ascent="1522" descent="-526" />
<missing-glyph horiz-adv-x="495" />
<glyph unicode=" "  horiz-adv-x="495" />
<glyph unicode="&#x09;" horiz-adv-x="495" />
<glyph unicode="&#xa0;" horiz-adv-x="495" />
<glyph unicode="!" horiz-adv-x="493" d="M141 90q0 41 34 69.5t77 28.5q41 0 70.5 -28.5t29.5 -69.5q0 -43 -29.5 -70.5t-70.5 -27.5q-45 0 -78 28.5t-33 69.5zM158 1149v258h161v-256l-43 -709h-55z" />
<glyph unicode="&#x22;" horiz-adv-x="692" d="M98 1481h148l-21 -490h-106zM444 1481h148l-21 -490h-106z" />
<glyph unicode="#" horiz-adv-x="1107" d="M72 371v108h233l86 461h-223v109h250l71 358h74l-67 -358h245l68 358h76l-72 -358h215v-109h-233l-101 -461h236v-108h-254l-68 -371h-73l69 371h-248l-75 -371h-70l74 371h-213zM379 479h244l98 461h-246z" />
<glyph unicode="$" horiz-adv-x="798" d="M84 1049q0 98 73.5 168.5t211.5 78.5v115h65v-108q96 0 168 -15v-131q-61 10 -121 10q-227 0 -227 -149q0 -74 48 -135.5t179 -147.5q135 -86 194.5 -172t59.5 -211q0 -266 -317 -291v-67h-66v65q-170 2 -217 31v139q68 -23 203 -22q59 0 90 3t69 18.5t54 53t16 99.5 q0 51 -43 110.5t-90 97.5t-112.5 86t-77.5 58q-96 86 -128 151t-32 165z" />
<glyph unicode="%" horiz-adv-x="1437" d="M96 1079q0 217 53.5 287t184.5 70q129 0 179 -69t50 -288t-50 -286.5t-179 -67.5q-131 0 -184.5 68.5t-53.5 285.5zM176 1079q0 -94 11.5 -151.5t35 -83t47 -32.5t64.5 -7q53 0 80.5 13t50 75.5t22.5 185.5q0 176 -36.5 226.5t-116.5 50.5q-82 0 -120 -50.5t-38 -226.5z M188 -45l969 1499h96l-960 -1499h-105zM879 330q0 217 53 286.5t184 69.5q129 0 179.5 -68.5t50.5 -287.5t-50.5 -287t-179.5 -68q-131 0 -184 69t-53 286zM958 330q0 -94 11.5 -151.5t35 -83t47 -33t64.5 -7.5q53 0 81 13.5t50.5 76t22.5 185.5q0 176 -37 226t-117 50 q-82 0 -120 -50t-38 -226z" />
<glyph unicode="&#x26;" horiz-adv-x="1183" d="M72 356q0 135 52 228.5t187 154.5q-104 129 -138 203t-34 168q0 156 95.5 234.5t320.5 78.5q211 0 266 -22v-146q-139 31 -248 31q-268 0 -268 -141q0 -84 30 -149.5t111 -159.5l381 -433q35 68 56.5 172.5t21.5 167.5v23h178q0 -145 -29.5 -254t-111.5 -236l244 -276 h-225l-134 164q-170 -172 -370 -172q-211 0 -298 92t-87 272zM221 399q0 -152 62.5 -206t185.5 -54q98 6 155.5 37t112.5 96l-319 351q-197 -70 -197 -224z" />
<glyph unicode="'" horiz-adv-x="346" d="M98 1481h148l-21 -490h-106z" />
<glyph unicode="(" horiz-adv-x="507" d="M186 549q0 580 179 977h106q-188 -389 -188 -944q0 -549 194 -1006h-112q-179 404 -179 973z" />
<glyph unicode=")" horiz-adv-x="509" d="M31 1524h121q174 -391 174 -977q0 -578 -174 -977h-111q184 365 184 948q1 588 -194 1006z" />
<glyph unicode="*" horiz-adv-x="839" d="M66 1022l284 59l-237 158l59 57l209 -172l-8 269h90l-8 -267l200 185l62 -66l-225 -162l280 -51l-16 -76l-279 62l133 -232l-71 -34l-121 247l-103 -256l-79 37l126 238l-274 -74z" />
<glyph unicode="+" d="M63 678v117h392v387h112v-387h389v-117h-389v-389h-112v389h-392z" />
<glyph unicode="," horiz-adv-x="337" d="M74 70q0 47 23.5 81.5t58.5 34.5q53 0 83.5 -27.5t30.5 -101.5q0 -78 -40 -152.5t-119 -111.5v37q92 51 104 145l-25 -4h-20q-47 0 -71.5 29t-24.5 70z" />
<glyph unicode="-" horiz-adv-x="432" d="M66 711v106h301v-106h-301z" />
<glyph unicode="." horiz-adv-x="346" d="M68 90q0 43 29.5 70.5t80.5 27.5q43 0 72 -28.5t29 -69.5q0 -43 -29 -70.5t-72 -27.5q-53 0 -81.5 26.5t-28.5 71.5z" />
<glyph unicode="/" horiz-adv-x="587" d="M51 -109l418 1665h66l-408 -1665h-76z" />
<glyph unicode="0" horiz-adv-x="1126" d="M98 707q0 383 101.5 545.5t371.5 162.5q272 0 365.5 -154.5t93.5 -553.5q0 -168 -9 -274.5t-36 -199t-79 -140.5t-133 -74.5t-202 -26.5q-147 0 -241 41t-144.5 136t-69 219t-18.5 319zM254 707q0 -121 6 -199t24.5 -151.5t53.5 -113.5t92 -64.5t141 -24.5t140.5 24.5 t89.5 63.5t49 115.5t20 150.5t4 198.5t-4 198.5t-20 149.5t-49 113.5t-89.5 62.5t-140.5 24.5t-141 -23.5t-92 -63.5t-53.5 -112.5t-24.5 -151t-6 -197.5z" />
<glyph unicode="1" horiz-adv-x="479" d="M84 1247v164h281v-1411h-158v1247h-123z" />
<glyph unicode="2" horiz-adv-x="937" d="M90 0v92q0 225 83 367.5t308 337.5q147 123 148 278q0 106 -71 143t-183 37q-117 0 -203 -43v177q88 27 195 26q80 0 133 -5t115.5 -25.5t100.5 -57.5t63.5 -105.5t25.5 -164.5q0 -193 -172 -344q-31 -27 -87.5 -75t-74.5 -63.5t-56 -51.5t-48.5 -51t-33 -46t-27.5 -52.5 t-14 -56t-11 -70.5t-2 -83h555v-164h-744z" />
<glyph unicode="3" horiz-adv-x="839" d="M109 4v160q76 -18 172 -19q295 0 294 271q0 143 -71.5 192t-257.5 49v148q190 0 256.5 68.5t66.5 179.5q0 113 -66.5 166t-238.5 53q-98 0 -155 -17v146q123 31 196 31q41 0 66.5 -1t76 -8.5t84 -20.5t75.5 -40t68.5 -64.5t44 -97t17.5 -135.5q0 -131 -47 -208t-147 -122 q207 -84 207 -295q0 -137 -37 -230t-105.5 -139t-144.5 -63.5t-176 -17.5q-104 0 -178 14z" />
<glyph unicode="4" horiz-adv-x="956" d="M59 403v197l494 807h209v-868h135v-136h-135v-405h-160v405h-543zM188 539h414v688z" />
<glyph unicode="5" horiz-adv-x="995" d="M78 739l59 668h633v-162h-491l-39 -420q100 74 297 74q63 0 109 -7t100.5 -35t88 -77t57 -140t23.5 -220q0 -424 -491 -424q-199 0 -254 12v166q111 -29 254 -29q168 0 250 57.5t82 237.5q0 182 -63.5 247t-190.5 65q-178 0 -252 -86z" />
<glyph unicode="6" horiz-adv-x="1095" d="M94 502q0 45 3 112.5t3 90.5q0 711 504 710q143 0 170 -18v-152q-61 12 -158 12q-201 0 -281.5 -107.5t-80.5 -350.5v-43q72 123 342 123q240 0 322.5 -99.5t82.5 -326.5q0 -240 -101 -350.5t-341 -110.5q-119 0 -207 32.5t-136 81t-76.5 120t-37 135t-8.5 141.5z M256 440q0 -180 71.5 -242.5t235.5 -62.5q141 0 213 66.5t72 242.5q0 162 -67.5 225.5t-237.5 63.5q-156 0 -221.5 -61.5t-65.5 -231.5z" />
<glyph unicode="7" horiz-adv-x="919" d="M88 1245v162h760v-207q-178 -164 -283.5 -498.5t-105.5 -701.5h-185q2 20 9.5 88t10.5 95.5t10 88t14.5 99.5t17.5 93t22.5 105.5t28.5 104.5q94 313 293 571h-592z" />
<glyph unicode="8" horiz-adv-x="1105" d="M98 418q0 125 57.5 214t143.5 105q-74 45 -106.5 117t-32.5 199q0 102 21.5 172.5t51 107.5t89 56.5t104.5 22.5t129 3t130 -3t105.5 -22.5t89 -56.5t51 -107.5t21.5 -172.5q0 -125 -32.5 -198t-106.5 -118q86 -16 143.5 -105t57.5 -214q0 -246 -114 -338t-345 -92 q-229 0 -343 92t-114 338zM264 446q0 -98 15.5 -157.5t54.5 -90t88 -39.5t133 -9q86 0 134 9t88 39.5t55.5 90t15.5 157.5q0 109 -67.5 161t-225.5 52q-156 0 -223.5 -52t-67.5 -161zM317 1040q0 -82 16.5 -131t55.5 -69.5t72 -25.5t94 -5t94 5t73 25.5t56.5 69.5t16.5 131 q0 139 -52.5 177t-187.5 38t-186.5 -38t-51.5 -177z" />
<glyph unicode="9" horiz-adv-x="1083" d="M86 944q0 246 101.5 358.5t334.5 112.5q127 0 217 -34.5t136.5 -83t71 -126t29.5 -133t5 -135.5v-377q0 -236 -130 -385t-366 -149q-137 0 -172 12v156q57 -14 158 -15q199 0 283 108.5t84 354.5v39q-76 -123 -349 -123q-240 0 -321.5 98.5t-81.5 321.5zM238 977 q0 -172 63.5 -239.5t239.5 -67.5q154 0 220 61.5t75 233.5q-10 178 -77 240.5t-227 62.5q-137 0 -215.5 -60.5t-78.5 -230.5z" />
<glyph unicode=":" horiz-adv-x="362" d="M74 90q0 43 29.5 70.5t82.5 27.5q43 0 75 -28.5t32 -69.5t-32 -69.5t-75 -28.5q-53 0 -82.5 27.5t-29.5 70.5zM76 913q0 45 29.5 73t82.5 28q43 0 75 -29t32 -72t-32 -71.5t-75 -28.5q-53 0 -82.5 27.5t-29.5 72.5z" />
<glyph unicode=";" horiz-adv-x="333" d="M74 70q0 47 23.5 81.5t58.5 34.5q53 0 83.5 -27.5t30.5 -101.5q0 -78 -40 -152.5t-119 -111.5v37q92 51 104 145l-25 -4h-20q-47 0 -71.5 29t-24.5 70zM74 913q0 45 28.5 73t81.5 28q43 0 74 -29t31 -72t-31 -71.5t-74 -28.5q-53 0 -81.5 27.5t-28.5 72.5z" />
<glyph unicode="&#x3c;" d="M63 678v117l893 366v-129l-757 -299l757 -293v-129z" />
<glyph unicode="=" d="M63 428v115h893v-115h-893zM63 930v114h893v-114h-893z" />
<glyph unicode="&#x3e;" d="M63 311v129l758 293l-758 299v129l893 -366v-117z" />
<glyph unicode="?" horiz-adv-x="708" d="M94 1251v138q88 33 197 32q174 0 264 -83t90 -238q0 -96 -30.5 -166t-104.5 -139q-76 -66 -112 -130.5t-41 -104.5t-5 -120v-22h-164q0 276 144 411q100 92 137 156t37 125q0 178 -240 178q-66 0 -172 -37zM170 90q0 41 27.5 69.5t72.5 28.5t73 -27.5t28 -70.5t-28 -70.5 t-73 -27.5t-72.5 27.5t-27.5 70.5z" />
<glyph unicode="@" horiz-adv-x="1595" d="M102 707q0 158 13.5 266t49.5 190t87 129t140 76t191.5 38t258.5 9q139 0 242.5 -12t177 -41t121 -69t75 -102.5t37.5 -133t10 -168.5q0 -160 -23.5 -265.5t-67.5 -152.5t-85 -62.5t-96 -15.5q-102 0 -153.5 17.5t-98.5 76.5q-90 -51 -184 -51q-178 0 -179 180 q0 201 189 201q90 0 156 -41v35q0 57 -44.5 89t-121.5 32q-10 0 -35 -5t-39 -5v84q6 0 27.5 4t33.5 4q266 0 267 -219v-209q6 -53 49 -76t131 -23q158 0 158 267v63q0 137 -17.5 216t-76 141.5t-171 87t-301.5 24.5q-133 0 -222 -9t-155.5 -38t-104.5 -66.5t-60.5 -108.5 t-29.5 -150.5t-7 -204.5q0 -186 24.5 -297t91 -176.5t164 -88t262.5 -22.5q285 0 533 45v-131q-211 -47 -586 -47q-117 0 -197.5 10t-156.5 37t-124 77t-84 129t-52.5 192.5t-16.5 269.5zM705 623q0 -66 28.5 -84.5t106.5 -18.5q76 0 123 62v114q-57 45 -140 45 q-66 0 -92 -27.5t-26 -90.5z" />
<glyph unicode="A" horiz-adv-x="1060" d="M31 0l366 1407h258l375 -1407h-170l-69 287h-525l-63 -287h-172zM307 434h455l-170 666l-60 254l-57 -258z" />
<glyph unicode="B" horiz-adv-x="1030" d="M113 0v1407h417q188 0 281.5 -93t93.5 -294q0 -203 -135 -291h2q184 -66 184 -299q0 -240 -91 -335t-300 -95h-452zM274 160h269q256 0 256 233q0 121 -63.5 189.5t-184.5 68.5h-277v-491zM274 799h224q119 0 182 58t63 167q0 221 -256 221h-213v-446z" />
<glyph unicode="C" horiz-adv-x="847" d="M80 707q0 86 2 144t11 139t26.5 135.5t50.5 113.5t80 94t117.5 58.5t160.5 23.5q203 0 246 -18v-158q-100 14 -227 14q-70 0 -108 -6t-83 -34.5t-66.5 -86t-36.5 -162t-15 -259.5q0 -115 8 -201t20.5 -144.5t38 -98.5t47 -61.5t62.5 -31.5t70.5 -12t82.5 -2q147 0 207 14 v-164q-55 -12 -252 -12q-100 0 -176 26.5t-123 81t-76.5 114.5t-44 150.5t-18.5 164.5t-4 178z" />
<glyph unicode="D" horiz-adv-x="1120" d="M113 0v1407h419q96 0 169 -13.5t126.5 -36t89 -66.5t58 -93t34 -130t15.5 -162t4 -201q0 -162 -11 -277t-41 -193.5t-66 -125t-99 -71t-125.5 -31.5t-163.5 -7h-409zM274 164h238q84 0 130 4t93 23.5t68.5 52t40 95t23.5 147.5t5 216q0 100 -4 175t-15 132.5t-22.5 96.5 t-37 66.5t-47 42t-63.5 21.5t-77 9t-94 2h-238v-1083z" />
<glyph unicode="E" horiz-adv-x="862" d="M113 0v1407h678v-162h-517v-436h318v-164h-318v-481h517v-164h-678z" />
<glyph unicode="F" horiz-adv-x="821" d="M113 0v1407h678v-162h-517v-436h330v-164h-330v-645h-161z" />
<glyph unicode="G" horiz-adv-x="1173" d="M98 680q0 145 18.5 259t47.5 190.5t75 132t91 85t109.5 46t113.5 20.5t119 4q168 0 278 -31v-139q-86 12 -278 13q-168 0 -254 -48.5t-125 -172.5t-39 -365q0 -147 17.5 -246.5t42 -154t76.5 -82t96 -32.5t126 -5q193 0 252.5 81.5t59.5 331.5v78h-230v164h391v-135 q0 -182 -21.5 -307t-56 -199t-100 -114t-132 -51t-173.5 -11q-88 0 -148.5 8t-123 31.5t-101.5 71t-70.5 122t-46 188t-14.5 267.5z" />
<glyph unicode="H" horiz-adv-x="1099" d="M113 0v1407h161v-598h547v598h162v-1407h-162v645h-547v-645h-161z" />
<glyph unicode="I" horiz-adv-x="403" d="M121 0v1407h162v-1407h-162z" />
<glyph unicode="J" horiz-adv-x="679" d="M51 -2v149q6 0 24.5 -1t28.5 -1q76 0 128.5 10.5t88 43t55 67.5t30 107.5t12.5 140.5t2 188v709h155v-702q0 -156 -4 -235t-27.5 -188.5t-72.5 -159.5t-142 -89t-233 -39h-45z" />
<glyph unicode="K" horiz-adv-x="993" d="M109 0v1407h163v-565l498 565h182l-530 -590l565 -817h-178l-539 788v-788h-161z" />
<glyph unicode="L" horiz-adv-x="868" d="M113 0v1407h161v-1243h562v-164h-723z" />
<glyph unicode="M" horiz-adv-x="1282" d="M102 0v1407h187l309 -881l47 -178l55 178l316 881h151v-1407h-118v942l10 229l-64 -204l-350 -967h-4l-350 952l-70 219l8 -231v-940h-127z" />
<glyph unicode="N" horiz-adv-x="1120" d="M113 0v1407h213l432 -961l121 -260l-15 297v924h142v-1407h-193l-436 956l-121 277v-1233h-143z" />
<glyph unicode="O" horiz-adv-x="1216" d="M98 707q0 154 7.5 255t30 186t57 132t95 80t137.5 44t191 11q113 0 190 -11t136 -44t93 -81t55.5 -132t28.5 -185.5t7 -255t-7 -255t-28.5 -186.5t-55.5 -133t-92 -82t-136 -46t-191 -12q-137 0 -224 20.5t-147.5 63.5t-91 130t-43 202t-12.5 299zM258 706.5 q0 -120.5 4 -195.5t17.5 -143.5t36 -104.5t64.5 -63.5t97 -36.5t139 -9q100 0 162 16t103 49t60.5 103.5t25.5 154.5t6 229.5t-6 229.5t-25.5 154.5t-60.5 101.5t-102.5 47t-162.5 16q-84 0 -139 -9t-97 -35.5t-64.5 -61.5t-36 -103.5t-17.5 -143.5t-4 -195.5z" />
<glyph unicode="P" horiz-adv-x="1005" d="M113 0v1407h419q430 0 431 -420q0 -410 -453 -409h-236v-578h-161zM274 735h291q254 0 254 256q0 254 -254 254h-291v-510z" />
<glyph unicode="Q" horiz-adv-x="1210" d="M98 707q0 154 7.5 255t30 186t57 132t95 80t137.5 44t191 11q113 0 190 -11t136 -44t93 -81t55.5 -132t28.5 -185.5t7 -254.5q0 -256 -24.5 -395.5t-91.5 -211.5l174 -159l-90 -91l-193 179q-96 -37 -285 -37q-137 0 -224 20.5t-147.5 63.5t-91 130t-43 202t-12.5 299z M258 706.5q0 -120.5 4 -195.5t17.5 -143.5t36 -104.5t64.5 -63.5t97 -36.5t139 -9q100 0 162 16t103 49t60.5 103.5t25.5 154.5t6 229.5t-6 229.5t-25.5 154.5t-60.5 101.5t-102.5 47t-162.5 16q-84 0 -139 -9t-97 -35.5t-64.5 -61.5t-36 -103.5t-17.5 -143.5t-4 -195.5z " />
<glyph unicode="R" horiz-adv-x="1013" d="M113 0v1407h419q219 0 325 -107.5t106 -300.5q0 -178 -79 -280.5t-208 -120.5q90 -49 143 -272q47 -264 144 -326h-193q-72 39 -115 315q-27 201 -131 263h-250v-578h-161zM274 735h291q254 0 254 256q0 254 -254 254h-291v-510z" />
<glyph unicode="S" horiz-adv-x="931" d="M70 1090q0 154 139 241.5t369 87.5q86 0 151 -16v-170q-78 37 -197 37q-121 0 -207.5 -44t-86.5 -134q0 -109 288 -338q156 -123 233 -206t91 -121t14 -91q0 -137 -95 -238.5t-292 -101.5h-45q-252 0 -299 27v165q100 -31 254 -30q301 0 301 164q0 55 -58.5 125.5 t-262.5 238.5q-141 115 -207 189.5t-78 113t-12 101.5z" />
<glyph unicode="T" horiz-adv-x="944" d="M35 1245v162h872v-162h-338v-1245h-180v1245h-354z" />
<glyph unicode="U" horiz-adv-x="1161" d="M106 453v954h166v-971q0 -158 80 -218t238 -60q162 0 229.5 58t67.5 220v971h166v-950q0 -248 -111 -354.5t-352.5 -106.5t-362.5 107.5t-121 349.5z" />
<glyph unicode="V" horiz-adv-x="1060" d="M31 1407h190l213 -848l101 -432l104 432l211 848h184l-381 -1407h-247z" />
<glyph unicode="W" horiz-adv-x="1411" d="M31 1407h174l190 -1059l66 275l201 784h90l204 -789l62 -270l45 275l141 784h174l-284 -1407h-140l-198 819l-49 230l-50 -232l-198 -817h-144z" />
<glyph unicode="X" horiz-adv-x="1009" d="M27 0l374 694l-374 713h184l231 -483l56 -140l57 138l236 485h192l-395 -713l389 -694h-199l-217 442l-63 158l-66 -160l-219 -440h-186z" />
<glyph unicode="Y" horiz-adv-x="974" d="M8 1407h191l225 -598l61 -199l64 199l227 598h191l-389 -883v-524h-183v524z" />
<glyph unicode="Z" horiz-adv-x="946" d="M63 0v203l584 932l80 110h-664v162h801v-213l-565 -889l-96 -141h663v-164h-803z" />
<glyph unicode="[" horiz-adv-x="602" d="M223 -360v1830h324v-110h-201v-1612h201v-108h-324z" />
<glyph unicode="\" horiz-adv-x="536" d="M31 1556h65l416 -1665h-72z" />
<glyph unicode="]" horiz-adv-x="587" d="M45 -252h199v1612h-199v110h317v-1830h-317v108z" />
<glyph unicode="^" horiz-adv-x="1011" d="M92 516l367 891h114l369 -891h-129l-299 758l-295 -758h-127z" />
<glyph unicode="_" horiz-adv-x="913" d="M12 -252h887v-74h-887v74z" />
<glyph unicode="`" horiz-adv-x="839" d="M195 1391v151l495 -213v-59z" />
<glyph unicode="a" horiz-adv-x="962" d="M57 340q0 193 93.5 290t252.5 97q164 0 302 -41v82q0 84 -86.5 136t-237.5 52q-104 0 -152 -18v168q16 10 217 10q188 0 302 -99t114 -274v-743h-94l-78 84q-111 -92 -280 -92q-353 0 -353 348zM213 344q0 -197 236 -197q94 0 173.5 38t79.5 96v272q-113 29 -260 29 q-229 0 -229 -238z" />
<glyph unicode="b" horiz-adv-x="989" d="M106 0v1452l164 39v-475q92 100 265 100q92 0 154.5 -22.5t114.5 -81t77.5 -171t25.5 -284.5q0 -170 -31.5 -286.5t-91 -175t-124 -81t-148.5 -22.5q-164 0 -291 100l-67 -92h-48zM264 285h2q78 -123 238 -123q74 0 113.5 11t74.5 51t48.5 121t13.5 216q0 139 -14.5 220 t-54.5 119t-81 47t-123 9q-141 0 -215 -118h-2v-553z" />
<glyph unicode="c" horiz-adv-x="665" d="M74 553q0 172 26.5 285.5t84 173t127 82t171.5 22.5h19q43 0 86 -6v-174q-33 20 -105 20q-70 0 -107.5 -10t-75.5 -49t-53.5 -124t-15.5 -226q0 -113 13.5 -187.5t31 -114.5t55.5 -60.5t66.5 -23.5t85.5 -3q29 0 105 14v-174q-47 -6 -96 -6h-19q-100 0 -168.5 23.5 t-123 84t-81 172t-26.5 281.5z" />
<glyph unicode="d" horiz-adv-x="987" d="M72 547q0 170 29.5 286.5t86 174t118 80t143.5 22.5q141 0 262 -66v408l161 39v-1491h-73l-43 92q-106 -100 -295 -100q-197 0 -293 120t-96 435zM233 485q0 -197 60.5 -264t214.5 -67q150 0 209 131h4v530q-72 129 -252 129q-70 0 -115 -21.5t-69.5 -51t-35.5 -98 t-13.5 -122t-2.5 -166.5z" />
<glyph unicode="e" horiz-adv-x="960" d="M78 635q0 229 112.5 355t305.5 126q188 0 287.5 -124t99.5 -400v-123h-643q4 -176 77.5 -246.5t237.5 -70.5q90 0 213 30v-178q-49 -12 -213 -12h-49q-233 0 -330.5 138t-97.5 505zM236 590h495q-2 121 -19.5 196.5t-51 111.5t-70.5 47t-96 11q-82 0 -134.5 -25.5 t-78 -80.5t-33.5 -111.5t-12 -148.5z" />
<glyph unicode="f" horiz-adv-x="524" d="M23 987v113h116v82q0 94 30 162.5t77 101.5t93 47t93 14q16 0 57 -4v-137q-6 0 -20 1t-25 1q-63 0 -105 -37t-42 -145v-86h195v-113h-195v-987h-158v987h-116z" />
<glyph unicode="g" horiz-adv-x="1013" d="M63 760q0 356 402 356q195 0 272 -37l54 80q41 63 86 87t133 24v-90q-90 -4 -121 -12.5t-55 -47.5l-46 -73q104 -80 105 -351q0 -262 -85 -356t-329 -94q-84 0 -182 18v-108q0 -68 109 -68h260q168 0 234.5 -56.5t66.5 -221.5q0 -170 -99.5 -220.5t-402.5 -50.5 q-295 0 -354 35v162q78 -31 360 -31q162 0 238.5 13.5t95 34t18.5 65.5q0 63 -42 87.5t-152 24.5h-187q-266 0 -266 209v78l111 49q-137 25 -180.5 127.5t-43.5 366.5zM225 682q0 -98 15.5 -156.5t54.5 -83t76 -30.5t110 -6q68 0 106 6t79 31.5t58 83t17 151.5 q0 168 -56 227.5t-200 59.5q-57 0 -87.5 -3.5t-69.5 -17.5t-57.5 -43t-32 -83t-13.5 -136z" />
<glyph unicode="h" d="M106 0v1452l164 39v-469q86 92 332 92q131 0 218 -89t87 -245v-780h-153v725q0 231 -244 231q-121 0 -183.5 -53t-62.5 -176v-727h-158z" />
<glyph unicode="i" horiz-adv-x="393" d="M92 1386q0 45 32 75t77 30q43 0 72.5 -29.5t29.5 -75.5q0 -41 -30.5 -70.5t-71.5 -29.5t-75 30.5t-34 69.5zM113 0v1100h161v-1100h-161z" />
<glyph unicode="j" horiz-adv-x="411" d="M-184 -289q31 -6 71 -6q156 0 206 105.5t50 367.5v922h158v-912q0 -133 -15.5 -237.5t-39 -171t-61.5 -115.5t-70.5 -72.5t-78.5 -37t-74 -15.5t-68 -2q-70 0 -78 12v162zM117 1386q0 45 32.5 75t73.5 30q49 0 78 -28.5t29 -76.5q0 -41 -30 -70.5t-77 -29.5 q-41 0 -73.5 30.5t-32.5 69.5z" />
<glyph unicode="k" horiz-adv-x="817" d="M113 0v1497l161 39v-870l297 434h201l-352 -438l373 -662h-179l-340 643v-643h-161z" />
<glyph unicode="l" horiz-adv-x="391" d="M109 0v1497l163 39v-1536h-163z" />
<glyph unicode="m" horiz-adv-x="1531" d="M113 0v1100h155v-94q82 106 244 106q156 0 264 -98q106 96 268 96q166 0 271.5 -76t105.5 -254v-780h-159v752q0 111 -47.5 163t-163.5 52q-113 0 -159 -52.5t-46 -162.5v-752h-164v752q0 113 -43 164t-162 51t-164 -52.5t-45 -162.5v-752h-155z" />
<glyph unicode="n" horiz-adv-x="1026" d="M113 0v1100h161v-78q86 92 334 92q129 0 218 -90t89 -244v-780h-155v725q0 231 -244 231q-121 0 -183.5 -53t-62.5 -176v-727h-157z" />
<glyph unicode="o" horiz-adv-x="968" d="M84 553q0 172 26.5 285.5t83 173t126 82t172 22.5t171 -23.5t122 -84t78 -173t24.5 -284.5q0 -229 -45 -352t-125 -165t-225 -42q-102 0 -173 23.5t-126.5 84t-82 172t-26.5 281.5zM240 547q0 -113 13 -187.5t30.5 -114.5t55.5 -60.5t66.5 -23.5t86.5 -3q47 0 76.5 5 t65.5 26.5t55.5 61.5t32.5 113.5t13 180.5q0 133 -15 217t-50 125t-75 55t-103 14q-70 0 -108 -10t-76 -49t-53 -124t-15 -226z" />
<glyph unicode="p" horiz-adv-x="993" d="M106 -461v1561h111l41 -92q66 86 281 86q203 0 285.5 -127t82.5 -428q0 -559 -362 -559q-164 0 -275 90v-531h-164zM270 291h2q74 -147 236 -148q127 0 186.5 88t59.5 306q0 227 -66.5 316t-210.5 89q-139 0 -205 -139h-2v-512z" />
<glyph unicode="q" horiz-adv-x="983" d="M68 539q0 303 86 429t290 126q197 0 314 -95l73 101h35v-1561h-159v531q-115 -90 -281 -90q-358 0 -358 559zM219 537q0 -219 60.5 -306.5t185.5 -87.5q166 0 235 148h7v512h-7q-66 139 -211 139q-141 0 -205.5 -89t-64.5 -316z" />
<glyph unicode="r" horiz-adv-x="561" d="M113 0v1100h127v-113q113 127 264 129v-153q-106 0 -171 -48.5t-65 -130.5v-784h-155z" />
<glyph unicode="s" horiz-adv-x="722" d="M66 0v158q8 -6 19 -9.5t31.5 -6.5t39 -4t59.5 -3t76 -4q115 0 166 38t51 97q0 41 -41 90.5t-143 128.5q-92 72 -135.5 113t-77 104.5t-33.5 141.5q0 268 366 268q80 0 150 -12v-158q-78 29 -168 29q-188 0 -188 -131q0 -41 80.5 -129t180 -181.5t113.5 -111.5 q51 -72 52 -176q0 -119 -99.5 -190.5t-294.5 -71.5q-126 0 -204 20z" />
<glyph unicode="t" horiz-adv-x="565" d="M27 987v113h112v330l156 38v-368h188v-113h-188v-620q0 -219 168 -220q20 0 57 5v-150q-18 -8 -92 -8q-47 0 -92 15.5t-92 52t-76 110.5t-29 178v637h-112z" />
<glyph unicode="u" horiz-adv-x="1017" d="M100 354v746h162v-721q0 -229 242 -229q102 0 175 52t73 175v723h149v-1100h-149v100q-70 -113 -258 -112q-193 0 -293.5 97t-100.5 269z" />
<glyph unicode="v" horiz-adv-x="837" d="M31 1100h172l166 -701l51 -256l51 256l166 701h172l-287 -1100h-205z" />
<glyph unicode="w" horiz-adv-x="1353" d="M31 1100h166l129 -592l53 -297l67 283l166 606h168l150 -606l57 -283l55 297l136 592h147l-266 -1100h-139l-154 604l-70 320l-78 -314l-176 -610h-135z" />
<glyph unicode="x" horiz-adv-x="796" d="M27 0l284 551l-284 549h163l154 -342l57 -146l58 146l159 342h150l-283 -549l283 -551h-166l-151 356l-56 133l-55 -133l-160 -356h-153z" />
<glyph unicode="y" horiz-adv-x="835" d="M31 1100h174l223 -1008l229 1008h152l-410 -1561h-129l125 461h-67z" />
<glyph unicode="z" horiz-adv-x="808" d="M70 0v162l456 708l60 66h-494v164h639v-164l-455 -719l-53 -55l129 6h387v-168h-669z" />
<glyph unicode="{" horiz-adv-x="595" d="M49 481v166q178 10 178 350v203q0 332 240 332h59v-82h-30q-113 0 -148 -48t-35 -177q0 -31 3 -122t3 -153q0 -233 -202 -372v-31q203 -125 202 -422q0 -289 17 -346q18 -72 88 -86q35 -6 102 -6v-90h-59q-240 0 -240 340v192q0 342 -178 352z" />
<glyph unicode="|" horiz-adv-x="569" d="M244 -416v1960h80v-1960h-80z" />
<glyph unicode="}" horiz-adv-x="589" d="M66 -317q94 0 124.5 11t45.5 42q16 47 21 65.5t10 64.5t5 118v194q0 256 205 369v35q-205 125 -205 422v180q0 162 -43 211t-145 49h-18v88h59q236 0 235 -340v-193q0 -332 181 -350v-168q-180 -10 -181 -350v-199q0 -336 -235 -335h-59v86z" />
<glyph unicode="~" d="M63 614v162q33 47 74 67.5t117 20.5q68 0 247 -56t261 -56q115 0 196 114v-164q-57 -86 -190 -86q-74 0 -254 57.5t-252 57.5q-123 0 -199 -117z" />
<glyph unicode="&#xa1;" horiz-adv-x="493" d="M141 1317q0 43 30 70.5t71 27.5q45 0 77.5 -28.5t32.5 -69.5t-33.5 -69.5t-76.5 -28.5q-41 0 -71 28.5t-30 69.5zM174 0v256l43 709h55l64 -707v-258h-162z" />
<glyph unicode="&#xa2;" horiz-adv-x="645" d="M68 758q0 274 73.5 395t223.5 150v258h84v-250h47q49 0 82 -8v-170q-31 16 -99 16h-30v-778h30q37 0 99 10v-170q-43 -6 -95 -6h-34v-244h-84v250q-150 25 -223.5 146.5t-73.5 400.5zM223 752q0 -190 36 -273.5t106 -101.5v764q-70 -25 -106 -110.5t-36 -278.5z" />
<glyph unicode="&#xa3;" horiz-adv-x="954" d="M74 0v166q156 18 172 350v219h-82v107h82v135q0 250 100 338h2q121 98 254 98q162 0 250 -39v-139q-35 27 -182 33h-21q-111 0 -180.5 -72t-69.5 -170v-184h244v-107h-244v-284q0 -152 -110 -287h594v-164h-809z" />
<glyph unicode="&#xa4;" horiz-adv-x="1161" d="M63 317l211 207v369l-211 209l123 123l207 -209h371l207 209l125 -123l-213 -209v-369l213 -207l-125 -124l-207 213h-371l-207 -213zM410 541h338v336h-338v-336z" />
<glyph unicode="&#xa5;" horiz-adv-x="1085" d="M61 1407h183l295 -797l288 797h185l-391 -909h206v-54h-198v-243h198v-51h-198v-150h-178v150h-224v51h224v243h-224v54h226z" />
<glyph unicode="&#xa6;" horiz-adv-x="569" d="M244 -416v865h80v-865h-80zM244 793v751h80v-751h-80z" />
<glyph unicode="&#xa7;" horiz-adv-x="854" d="M84 -2v119q76 -16 178 -17q133 0 198.5 35t65.5 129q0 106 -207 252q-215 141 -215 301q0 195 228 252q-92 106 -92 215q0 72 38.5 123t104.5 74.5t131.5 34t140.5 10.5h72q20 0 23 -2v-121q-16 0 -64.5 4t-73.5 4q-217 0 -217 -137q0 -47 65.5 -120t164 -157t112.5 -98 q74 -74 74 -192q0 -100 -62.5 -163t-158.5 -71q90 -92 90 -205q0 -119 -91 -203.5t-267 -84.5q-127 0 -238 18zM254 825q0 -113 219 -258q193 20 193 144q0 68 -57.5 123t-190.5 143q-164 -50 -164 -152z" />
<glyph unicode="&#xa8;" horiz-adv-x="1017" d="M150 1411q0 47 31.5 78t82.5 31q49 0 81 -31t32 -78q0 -51 -32 -84t-81 -33q-51 0 -82.5 33t-31.5 84zM643 1411q0 47 32 78t83 31q49 0 80.5 -31t31.5 -78q0 -51 -31.5 -84t-80.5 -33q-51 0 -83 33t-32 84z" />
<glyph unicode="&#xa9;" horiz-adv-x="1368" d="M92 702q0 164 9.5 272.5t37 191.5t65.5 129t109.5 75t155.5 37t215 8q106 0 175 -3t135.5 -16.5t104.5 -33t73.5 -58t52 -87t30 -125t17.5 -165.5t4 -216q0 -174 -7 -281.5t-34 -195t-61.5 -129.5t-110.5 -70.5t-162 -35.5t-231 -7q-127 0 -210 9t-152.5 39t-107.5 76 t-64.5 129t-35 190t-8.5 267zM195 670q0 -111 1 -167.5t8 -128t18 -102t37 -70.5t58.5 -53.5t87 -29t120 -18.5t159.5 -3q92 0 156.5 3t119 18.5t87 31t59.5 55.5t38 74.5t19 107.5t9.5 136.5t1.5 175.5q0 150 -3.5 229t-20.5 159.5t-45 114.5t-86 63.5t-135 37t-200 7.5 q-94 0 -157.5 -3t-118 -19.5t-87 -32t-59 -58.5t-38 -80t-19.5 -114.5t-9 -145t-1 -188.5zM498 713q0 197 48 259t138 62q63 0 125 -16v-94q-27 8 -70 8q-39 0 -56 -4t-37.5 -23.5t-29 -66.5t-8.5 -127q0 -78 10.5 -126t33 -66.5t39 -22.5t48.5 -4q43 0 70 8v-103 q-51 -10 -125 -10q-90 0 -138 63.5t-48 262.5z" />
<glyph unicode="&#xaa;" horiz-adv-x="653" d="M94 809q0 106 51.5 159.5t139.5 53.5q90 0 166 -23v45q0 47 -47.5 76t-131.5 29q-53 0 -84 -10v90q8 6 119 6q104 0 167 -54.5t63 -150.5v-407h-52l-43 45q-61 -49 -153 -50q-195 1 -195 191zM180 811q0 -109 129 -109q53 0 96.5 20.5t43.5 53.5v152q-57 14 -144 14 q-125 0 -125 -131z" />
<glyph unicode="&#xab;" horiz-adv-x="821" d="M51 709v110l307 207v-94l-270 -160l270 -164v-96zM461 709v110l307 207v-94l-270 -160l270 -164v-96z" />
<glyph unicode="&#xac;" horiz-adv-x="1079" d="M94 674v182h881v-819h-176v637h-705z" />
<glyph unicode="&#xad;" horiz-adv-x="432" d="M66 711v106h301v-106h-301z" />
<glyph unicode="&#xae;" horiz-adv-x="1327" d="M92 702q0 164 8.5 272.5t35 191.5t63.5 129t106.5 75t150.5 37t208 8q102 0 167.5 -3t130 -16.5t101.5 -33t71.5 -58t50 -87t29 -126t16.5 -165.5t3 -215q0 -174 -6 -280.5t-32 -195t-59.5 -130.5t-107.5 -70.5t-157 -35.5t-222 -7q-123 0 -202.5 9t-147.5 39t-103.5 76 t-61 129t-34 189t-8.5 268zM190 670q0 -111 1.5 -167.5t8.5 -128t17 -102t36 -70.5t56.5 -53.5t83.5 -29t115.5 -18.5t155.5 -3q90 0 151.5 3t114.5 18.5t85 31t56.5 55.5t35.5 74.5t19.5 107.5t9.5 136.5t1 176t-1 177t-9.5 137t-20.5 109.5t-37 77t-56.5 55.5t-83.5 31 t-114.5 19.5t-150.5 4q-72 0 -124.5 -2t-100.5 -11.5t-79.5 -18.5t-59.5 -33.5t-44 -45t-29.5 -64.5t-19.5 -81t-10 -105.5t-5.5 -126t-1.5 -153.5zM455 334v762h227q100 0 156.5 -55.5t56.5 -151.5q0 -76 -38 -123t-91 -68q45 -61 70 -215q14 -86 45 -149h-105 q-14 23 -28 145q-20 133 -80 201h-119v-346h-94zM549 772h133q125 0 125 113q0 55 -33 85.5t-92 30.5h-133v-229z" />
<glyph unicode="&#xaf;" horiz-adv-x="956" d="M172 1370v103h610v-103h-610z" />
<glyph unicode="&#xb0;" horiz-adv-x="647" d="M66 1145q0 119 71.5 212t188.5 93q129 0 196.5 -84t67.5 -209q0 -123 -69.5 -216t-194.5 -99q-117 0 -188.5 93t-71.5 210zM186 1145q0 -90 34 -149.5t105.5 -59.5t113.5 61.5t42 147.5t-42 148.5t-113.5 62.5t-105.5 -60.5t-34 -150.5z" />
<glyph unicode="&#xb1;" d="M63 55v117h893v-117h-893zM63 678v117h392v387h112v-387h389v-117h-389v-389h-112v389h-392z" />
<glyph unicode="&#xb2;" horiz-adv-x="530" d="M74 729v45q0 117 42 190.5t156 161.5q72 72 72 140q0 55 -34 72.5t-93 17.5q-61 0 -100 -21v88q49 12 96 13q51 0 84 -5.5t67.5 -21.5t52 -54t17.5 -98q0 -98 -88 -172q-12 -10 -39.5 -33.5t-35 -30.5t-27 -23.5t-23.5 -23.5t-16 -21.5t-14.5 -22.5t-9.5 -22.5t-8 -29 t-2 -32t-1 -37.5h279v-80h-375z" />
<glyph unicode="&#xb3;" horiz-adv-x="481" d="M86 731v78q33 -8 84 -8q55 0 102 31.5t47 103.5t-36.5 95.5t-128.5 23.5v71q162 0 161 129q0 109 -153 109q-47 0 -76 -8v74q68 14 96 14q39 0 64.5 -4t66.5 -21.5t63.5 -62.5t22.5 -117q0 -100 -96 -143q100 -39 100 -148q0 -223 -213 -223q-81 0 -104 6z" />
<glyph unicode="&#xb4;" horiz-adv-x="839" d="M150 1270v59l493 215v-153z" />
<glyph unicode="&#xb5;" horiz-adv-x="1042" d="M109 -461v1561h161v-721q0 -129 58.5 -179t179.5 -50q123 0 187.5 51t64.5 176v723h149v-981h121v-119h-244v72q-119 -84 -272.5 -84t-243.5 73v-522h-161z" />
<glyph unicode="&#xb6;" horiz-adv-x="817" d="M72 1118v289h667v-1407h-82v1118h-284v-1118h-80v1118h-221z" />
<glyph unicode="&#xb7;" horiz-adv-x="346" d="M68 711q0 45 28.5 72.5t81.5 27.5q43 0 72 -28.5t29 -71.5q0 -41 -29 -69t-72 -28q-53 0 -81.5 27t-28.5 70z" />
<glyph unicode="&#xb8;" horiz-adv-x="602" d="M195 -244q0 45 22.5 80t58.5 35q53 0 83 -27.5t30 -101.5q0 -80 -40 -153.5t-120 -110.5v37q94 49 107 145l-25 -4h-20q-49 0 -72.5 28.5t-23.5 71.5z" />
<glyph unicode="&#xb9;" horiz-adv-x="301" d="M72 1352v82h141v-705h-78v623h-63z" />
<glyph unicode="&#xba;" horiz-adv-x="657" d="M109 928q0 180 54 243.5t168.5 63.5t166 -64.5t51.5 -244.5q0 -184 -49 -246t-168 -62q-115 0 -169 65t-54 245zM195 924q0 -78 8 -123t30.5 -64.5t41 -23.5t57.5 -4q33 0 53.5 5t40.5 24.5t30.5 65.5t10.5 120q0 139 -32 182t-103 43q-76 0 -106.5 -39t-30.5 -186z" />
<glyph unicode="&#xbb;" horiz-adv-x="825" d="M51 512v100l262 162l-262 160v92l309 -197v-114zM463 512v100l262 162l-262 160v92l309 -197v-114z" />
<glyph unicode="&#xbc;" horiz-adv-x="1361" d="M98 -45l969 1499h96l-960 -1499h-105zM199 1352v82h141v-705h-78v623h-63zM852 180v99l248 403h102v-432h70v-70h-70v-203h-78v203h-272zM918 250h206v344z" />
<glyph unicode="&#xbd;" horiz-adv-x="1351" d="M98 -45l969 1499h96l-960 -1499h-105zM199 1352v82h141v-705h-78v623h-63zM887 -20v45q0 117 42 190.5t156 161.5q72 72 72 139q0 55 -33.5 72.5t-93.5 17.5q-61 0 -100 -20v88q49 12 96 12q51 0 84 -5t67.5 -21.5t52 -54.5t17.5 -97q0 -98 -88 -172q-12 -10 -39.5 -33.5 t-35 -31t-27 -24t-23.5 -23.5t-16 -21.5t-14.5 -22.5t-9.5 -22.5t-8 -28.5t-2 -31.5t-1 -38.5h279v-79h-375z" />
<glyph unicode="&#xbe;" horiz-adv-x="1320" d="M98 -45l969 1499h96l-960 -1499h-105zM135 731v78q33 -8 84 -8q55 0 102.5 31.5t47.5 103.5t-37 95.5t-129 23.5v71q162 0 162 129q0 109 -154 109q-47 0 -76 -8v74q68 14 96 14q39 0 65 -4t66.5 -21.5t63.5 -62.5t23 -117q0 -100 -97 -143q100 -39 101 -148 q0 -223 -213 -223q-82 0 -105 6zM811 180v99l248 403h102v-432h70v-70h-70v-203h-78v203h-272zM877 250h206v344z" />
<glyph unicode="&#xbf;" horiz-adv-x="708" d="M61 313q0 96 31 166t105 139q76 66 111.5 130.5t40.5 104.5t5 120v22h164q0 -276 -143 -411q-100 -92 -137 -155.5t-37 -125.5q0 -178 239 -178q66 0 172 37v-137q-88 -33 -196 -33q-174 0 -264.5 82.5t-90.5 238.5zM336 1323q0 43 27.5 70.5t72.5 27.5t73 -27.5 t28 -70.5q0 -41 -29 -69.5t-72 -28.5q-45 0 -72.5 27.5t-27.5 70.5z" />
<glyph unicode="&#xc0;" horiz-adv-x="1060" d="M31 0l366 1407h258l375 -1407h-170l-69 287h-525l-63 -287h-172zM225 1700v151l496 -213v-59zM307 434h455l-170 666l-60 254l-57 -258z" />
<glyph unicode="&#xc1;" horiz-adv-x="1060" d="M31 0l366 1407h258l375 -1407h-170l-69 287h-525l-63 -287h-172zM307 434h455l-170 666l-60 254l-57 -258zM348 1579v59l494 215v-153z" />
<glyph unicode="&#xc2;" horiz-adv-x="1060" d="M31 0l366 1407h258l375 -1407h-170l-69 287h-525l-63 -287h-172zM211 1561v63l321 303l320 -305v-61l-320 213zM307 434h455l-170 666l-60 254l-57 -258z" />
<glyph unicode="&#xc3;" horiz-adv-x="1060" d="M31 0l366 1407h258l375 -1407h-170l-69 287h-525l-63 -287h-172zM227 1679v88q66 55 148 56q45 0 149.5 -40t175.5 -40q88 0 140 45v-84q-68 -57 -150 -57q-43 0 -145.5 43t-173.5 43q-85 -1 -144 -54zM307 434h455l-170 666l-60 254l-57 -258z" />
<glyph unicode="&#xc4;" horiz-adv-x="1060" d="M31 0l366 1407h258l375 -1407h-170l-69 287h-525l-63 -287h-172zM172 1720q0 47 32 78t83 31q49 0 80.5 -31t31.5 -78q0 -51 -31.5 -83.5t-80.5 -32.5q-51 0 -83 32.5t-32 83.5zM307 434h455l-170 666l-60 254l-57 -258zM666 1720q0 47 31.5 78t82.5 31q49 0 81 -31 t32 -78q0 -51 -32 -83.5t-81 -32.5q-51 0 -82.5 32.5t-31.5 83.5z" />
<glyph unicode="&#xc5;" horiz-adv-x="1060" d="M31 0l366 1407h258l375 -1407h-170l-69 287h-525l-63 -287h-172zM307 434h455l-170 666l-60 254l-57 -258zM338 1716q0 41 6 73t24.5 66.5t60.5 54t105.5 19.5t104.5 -19.5t58.5 -54t23.5 -65.5t6 -74q0 -41 -6 -71.5t-23.5 -65.5t-58.5 -53.5t-104 -18.5 q-119 0 -158 59.5t-39 149.5zM395 1716q0 -78 28 -123t111.5 -45t111.5 45t28 123t-28 124t-111.5 46t-111.5 -45t-28 -125z" />
<glyph unicode="&#xc6;" horiz-adv-x="1239" d="M31 -27l473 1405h764v-164h-342v-610h250v-164h-250v-305h342v-162h-500v467h-403l-158 -467h-176zM420 604h348v617h-168z" />
<glyph unicode="&#xc7;" horiz-adv-x="847" d="M80 707q0 86 2 144t11 139t26.5 135.5t50.5 113.5t80 94t117.5 58.5t160.5 23.5q203 0 246 -18v-158q-100 14 -227 14q-70 0 -108 -6t-83 -34.5t-66.5 -86t-36.5 -162t-15 -259.5q0 -115 8 -201t20.5 -144.5t38 -98.5t47 -61.5t62.5 -31.5t70.5 -12t82.5 -2q147 0 207 14 v-164q-55 -12 -252 -12q-100 0 -176 26.5t-123 81t-76.5 114.5t-44 150.5t-18.5 164.5t-4 178zM408 -244q0 45 22.5 80t58.5 35q53 0 83 -27.5t30 -101.5q0 -80 -40 -153.5t-120 -110.5v37q94 49 107 145l-25 -4h-20q-49 0 -72.5 28.5t-23.5 71.5z" />
<glyph unicode="&#xc8;" horiz-adv-x="862" d="M113 0v1407h678v-162h-517v-436h318v-164h-318v-481h517v-164h-678zM143 1700v151l496 -213v-59z" />
<glyph unicode="&#xc9;" horiz-adv-x="862" d="M113 0v1407h678v-162h-517v-436h318v-164h-318v-481h517v-164h-678zM268 1579v59l494 215v-153z" />
<glyph unicode="&#xca;" horiz-adv-x="862" d="M113 0v1407h678v-162h-517v-436h318v-164h-318v-481h517v-164h-678zM133 1561v63l322 303l319 -305v-61l-319 213z" />
<glyph unicode="&#xcb;" horiz-adv-x="862" d="M92 1720q0 47 32 78t83 31q49 0 80.5 -31t31.5 -78q0 -51 -31.5 -83.5t-80.5 -32.5q-51 0 -83 32.5t-32 83.5zM113 0v1407h678v-162h-517v-436h318v-164h-318v-481h517v-164h-678zM586 1720q0 47 31.5 78t82.5 31q49 0 81 -31t32 -78q0 -51 -31.5 -83.5t-81.5 -32.5 q-51 0 -82.5 32.5t-31.5 83.5z" />
<glyph unicode="&#xcc;" horiz-adv-x="403" d="M-109 1700v151l496 -213v-59zM121 0v1407h162v-1407h-162z" />
<glyph unicode="&#xcd;" horiz-adv-x="403" d="M18 1579v59l494 215v-153zM121 0v1407h162v-1407h-162z" />
<glyph unicode="&#xce;" horiz-adv-x="403" d="M-119 1561v63l322 303l319 -305v-61l-319 213zM121 0v1407h162v-1407h-162z" />
<glyph unicode="&#xcf;" horiz-adv-x="403" d="M-158 1720q0 47 32 78t83 31q49 0 81 -31t32 -78q0 -51 -32 -83.5t-81 -32.5q-51 0 -83 32.5t-32 83.5zM121 0v1407h162v-1407h-162zM336 1720q0 47 31.5 78t83.5 31q49 0 80.5 -31t31.5 -78q0 -51 -31.5 -83.5t-80.5 -32.5q-51 0 -83 32.5t-32 83.5z" />
<glyph unicode="&#xd0;" horiz-adv-x="1167" d="M-6 653v117h147v637h420q96 0 169 -13.5t126 -36t89 -66.5t58.5 -93t34 -130t15.5 -162t4 -201q0 -162 -11.5 -277t-41 -193.5t-65.5 -125t-99.5 -71t-126 -31.5t-162.5 -7h-410v653h-147zM303 164h238q84 0 130 4t93 23.5t68.5 52t40 95t23.5 147.5t5 216q0 100 -4 175 t-15.5 132.5t-22.5 96.5t-36.5 66.5t-47 42t-63.5 21.5t-77 9t-94 2h-238v-477h154v-117h-154v-489z" />
<glyph unicode="&#xd1;" horiz-adv-x="1120" d="M113 0v1407h213l432 -961l121 -260l-15 297v924h142v-1407h-193l-436 956l-121 277v-1233h-143zM266 1679v88q66 55 148 56q45 0 149.5 -40t175.5 -40q88 0 140 45v-84q-68 -57 -150 -57q-43 0 -145.5 43t-173.5 43q-85 -1 -144 -54z" />
<glyph unicode="&#xd2;" horiz-adv-x="1216" d="M98 707q0 154 7.5 255t30 186t57 132t95 80t137.5 44t191 11q113 0 190 -11t136 -44t93 -81t55.5 -132t28.5 -185.5t7 -255t-7 -255t-28.5 -186.5t-55.5 -133t-92 -82t-136 -46t-191 -12q-137 0 -224 20.5t-147.5 63.5t-91 130t-43 202t-12.5 299zM258 706.5 q0 -120.5 4 -195.5t17.5 -143.5t36 -104.5t64.5 -63.5t97 -36.5t139 -9q100 0 162 16t103 49t60.5 103.5t25.5 154.5t6 229.5t-6 229.5t-25.5 154.5t-60.5 101.5t-102.5 47t-162.5 16q-84 0 -139 -9t-97 -35.5t-64.5 -61.5t-36 -103.5t-17.5 -143.5t-4 -195.5zM299 1700v151 l496 -213v-59z" />
<glyph unicode="&#xd3;" horiz-adv-x="1216" d="M98 707q0 154 7.5 255t30 186t57 132t95 80t137.5 44t191 11q113 0 190 -11t136 -44t93 -81t55.5 -132t28.5 -185.5t7 -255t-7 -255t-28.5 -186.5t-55.5 -133t-92 -82t-136 -46t-191 -12q-137 0 -224 20.5t-147.5 63.5t-91 130t-43 202t-12.5 299zM258 706.5 q0 -120.5 4 -195.5t17.5 -143.5t36 -104.5t64.5 -63.5t97 -36.5t139 -9q100 0 162 16t103 49t60.5 103.5t25.5 154.5t6 229.5t-6 229.5t-25.5 154.5t-60.5 101.5t-102.5 47t-162.5 16q-84 0 -139 -9t-97 -35.5t-64.5 -61.5t-36 -103.5t-17.5 -143.5t-4 -195.5zM424 1579v59 l494 215v-153z" />
<glyph unicode="&#xd4;" horiz-adv-x="1216" d="M98 707q0 154 7.5 255t30 186t57 132t95 80t137.5 44t191 11q113 0 190 -11t136 -44t93 -81t55.5 -132t28.5 -185.5t7 -255t-7 -255t-28.5 -186.5t-55.5 -133t-92 -82t-136 -46t-191 -12q-137 0 -224 20.5t-147.5 63.5t-91 130t-43 202t-12.5 299zM258 706.5 q0 -120.5 4 -195.5t17.5 -143.5t36 -104.5t64.5 -63.5t97 -36.5t139 -9q100 0 162 16t103 49t60.5 103.5t25.5 154.5t6 229.5t-6 229.5t-25.5 154.5t-60.5 101.5t-102.5 47t-162.5 16q-84 0 -139 -9t-97 -35.5t-64.5 -61.5t-36 -103.5t-17.5 -143.5t-4 -195.5zM289 1561v63 l321 303l320 -305v-61l-320 213z" />
<glyph unicode="&#xd5;" horiz-adv-x="1216" d="M98 707q0 154 7.5 255t30 186t57 132t95 80t137.5 44t191 11q113 0 190 -11t136 -44t93 -81t55.5 -132t28.5 -185.5t7 -255t-7 -255t-28.5 -186.5t-55.5 -133t-92 -82t-136 -46t-191 -12q-137 0 -224 20.5t-147.5 63.5t-91 130t-43 202t-12.5 299zM258 706.5 q0 -120.5 4 -195.5t17.5 -143.5t36 -104.5t64.5 -63.5t97 -36.5t139 -9q100 0 162 16t103 49t60.5 103.5t25.5 154.5t6 229.5t-6 229.5t-25.5 154.5t-60.5 101.5t-102.5 47t-162.5 16q-84 0 -139 -9t-97 -35.5t-64.5 -61.5t-36 -103.5t-17.5 -143.5t-4 -195.5zM303 1679v88 q66 55 148 56q45 0 149.5 -40t175.5 -40q88 0 139 45v-84q-68 -57 -149 -57q-43 0 -145.5 43t-174.5 43q-84 -1 -143 -54z" />
<glyph unicode="&#xd6;" horiz-adv-x="1216" d="M98 707q0 154 7.5 255t30 186t57 132t95 80t137.5 44t191 11q113 0 190 -11t136 -44t93 -81t55.5 -132t28.5 -185.5t7 -255t-7 -255t-28.5 -186.5t-55.5 -133t-92 -82t-136 -46t-191 -12q-137 0 -224 20.5t-147.5 63.5t-91 130t-43 202t-12.5 299zM248 1720q0 47 31.5 78 t82.5 31q49 0 81 -31t32 -78q0 -51 -31.5 -83.5t-81.5 -32.5q-51 0 -82.5 32.5t-31.5 83.5zM258 706.5q0 -120.5 4 -195.5t17.5 -143.5t36 -104.5t64.5 -63.5t97 -36.5t139 -9q100 0 162 16t103 49t60.5 103.5t25.5 154.5t6 229.5t-6 229.5t-25.5 154.5t-60.5 101.5 t-102.5 47t-162.5 16q-84 0 -139 -9t-97 -35.5t-64.5 -61.5t-36 -103.5t-17.5 -143.5t-4 -195.5zM741 1720q0 47 32 78t83 31q49 0 81 -31t32 -78q0 -51 -32 -83.5t-81 -32.5q-51 0 -83 32.5t-32 83.5z" />
<glyph unicode="&#xd7;" d="M152 461l276 274l-274 277l79 82l275 -277l276 277l80 -84l-272 -275l274 -274l-80 -82l-276 276l-277 -276z" />
<glyph unicode="&#xd8;" horiz-adv-x="1228" d="M102 707q0 485 129 598q133 111 385 110h23q109 0 188 -24l58 155h94l-64 -180q115 -45 165 -186.5t50 -474.5q0 -168 -11 -286t-41.5 -198t-65.5 -125t-100.5 -68.5t-125 -29.5t-161.5 -6h-15q-113 0 -186 8l-37 -98h-108l45 127q-113 55 -167.5 210t-54.5 468zM262 700 q0 -248 28.5 -353t96.5 -146l387 1038q-59 16 -158 16q-188 0 -274 -75q-80 -72 -80 -480zM483 168q55 -14 133 -14q201 0 279 71q82 72 82 477q0 467 -121 506z" />
<glyph unicode="&#xd9;" horiz-adv-x="1161" d="M106 453v954h166v-971q0 -158 80 -218t238 -60q162 0 229.5 58t67.5 220v971h166v-950q0 -248 -111 -354.5t-352.5 -106.5t-362.5 107.5t-121 349.5zM268 1700v151l496 -213v-59z" />
<glyph unicode="&#xda;" horiz-adv-x="1161" d="M106 453v954h166v-971q0 -158 80 -218t238 -60q162 0 229.5 58t67.5 220v971h166v-950q0 -248 -111 -354.5t-352.5 -106.5t-362.5 107.5t-121 349.5zM395 1579v59l494 215v-153z" />
<glyph unicode="&#xdb;" horiz-adv-x="1161" d="M106 453v954h166v-971q0 -158 80 -218t238 -60q162 0 229.5 58t67.5 220v971h166v-950q0 -248 -111 -354.5t-352.5 -106.5t-362.5 107.5t-121 349.5zM260 1561v63l322 303l319 -305v-61l-319 213z" />
<glyph unicode="&#xdc;" horiz-adv-x="1161" d="M106 453v954h166v-971q0 -158 80 -218t238 -60q162 0 229.5 58t67.5 220v971h166v-950q0 -248 -111 -354.5t-352.5 -106.5t-362.5 107.5t-121 349.5zM219 1720q0 47 32 78t83 31q49 0 80.5 -31t31.5 -78q0 -51 -31.5 -83.5t-80.5 -32.5q-51 0 -83 32.5t-32 83.5z M713 1720q0 47 31.5 78t82.5 31q49 0 81 -31t32 -78q0 -51 -31.5 -83.5t-81.5 -32.5q-51 0 -82.5 32.5t-31.5 83.5z" />
<glyph unicode="&#xdd;" horiz-adv-x="974" d="M8 1407h191l225 -598l61 -199l64 199l227 598h191l-389 -883v-524h-183v524zM301 1579v59l494 215v-153z" />
<glyph unicode="&#xde;" horiz-adv-x="1024" d="M113 0v1407h161v-303h285q223 0 313.5 -97.5t90.5 -324.5q0 -225 -95.5 -317.5t-328.5 -92.5h-265v-272h-161zM274 434h308q248 0 247 250q0 256 -247 256h-308v-506z" />
<glyph unicode="&#xdf;" horiz-adv-x="1247" d="M113 0v1014q0 279 140 385t404 106q240 0 354.5 -97t114.5 -302q0 -160 -46 -239t-152 -103q98 -10 168.5 -95t70.5 -251q0 -125 -34.5 -212t-100 -132t-141.5 -63.5t-176 -18.5q-84 0 -178 12v154q63 -10 151 -11q154 0 248 60.5t94 224.5q0 119 -93 182.5t-237 63.5 h-161v162h145q152 0 225.5 64.5t73.5 225.5q0 66 -24.5 111t-55.5 67.5t-86 34t-90 13.5t-94 2q-166 0 -262.5 -70.5t-96.5 -249.5v-1038h-161z" />
<glyph unicode="&#xe0;" horiz-adv-x="962" d="M57 340q0 193 93.5 290t252.5 97q164 0 302 -41v82q0 84 -86.5 136t-237.5 52q-104 0 -152 -18v168q16 10 217 10q188 0 302 -99t114 -274v-743h-94l-78 84q-111 -92 -280 -92q-353 0 -353 348zM172 1391v151l496 -213v-59zM213 344q0 -197 236 -197q94 0 173.5 38 t79.5 96v272q-113 29 -260 29q-229 0 -229 -238z" />
<glyph unicode="&#xe1;" horiz-adv-x="962" d="M57 340q0 193 93.5 290t252.5 97q164 0 302 -41v82q0 84 -86.5 136t-237.5 52q-104 0 -152 -18v168q16 10 217 10q188 0 302 -99t114 -274v-743h-94l-78 84q-111 -92 -280 -92q-353 0 -353 348zM213 344q0 -197 236 -197q94 0 173.5 38t79.5 96v272q-113 29 -260 29 q-229 0 -229 -238zM297 1270v59l494 215v-153z" />
<glyph unicode="&#xe2;" horiz-adv-x="962" d="M57 340q0 193 93.5 290t252.5 97q164 0 302 -41v82q0 84 -86.5 136t-237.5 52q-104 0 -152 -18v168q16 10 217 10q188 0 302 -99t114 -274v-743h-94l-78 84q-111 -92 -280 -92q-353 0 -353 348zM182 1251v64l322 303l319 -305v-62l-319 213zM213 344q0 -197 236 -197 q94 0 173.5 38t79.5 96v272q-113 29 -260 29q-229 0 -229 -238z" />
<glyph unicode="&#xe3;" horiz-adv-x="962" d="M57 340q0 193 93.5 290t252.5 97q164 0 302 -41v82q0 84 -86.5 136t-237.5 52q-104 0 -152 -18v168q16 10 217 10q188 0 302 -99t114 -274v-743h-94l-78 84q-111 -92 -280 -92q-353 0 -353 348zM205 1370v88q66 55 147 55q45 0 149.5 -39.5t176.5 -39.5q88 0 139 45v-84 q-68 -57 -149 -58q-43 0 -145.5 43t-174.5 43q-84 0 -143 -53zM213 344q0 -197 236 -197q94 0 173.5 38t79.5 96v272q-113 29 -260 29q-229 0 -229 -238z" />
<glyph unicode="&#xe4;" horiz-adv-x="962" d="M57 340q0 193 93.5 290t252.5 97q164 0 302 -41v82q0 84 -86.5 136t-237.5 52q-104 0 -152 -18v168q16 10 217 10q188 0 302 -99t114 -274v-743h-94l-78 84q-111 -92 -280 -92q-353 0 -353 348zM131 1411q0 47 32 78t83 31q49 0 80.5 -31t31.5 -78q0 -51 -31.5 -84 t-80.5 -33q-51 0 -83 33t-32 84zM213 344q0 -197 236 -197q94 0 173.5 38t79.5 96v272q-113 29 -260 29q-229 0 -229 -238zM625 1411q0 47 31.5 78t82.5 31q49 0 81 -31t32 -78q0 -51 -32 -84t-81 -33q-51 0 -82.5 33t-31.5 84z" />
<glyph unicode="&#xe5;" horiz-adv-x="962" d="M57 340q0 193 93.5 290t252.5 97q164 0 302 -41v82q0 84 -86.5 136t-237.5 52q-104 0 -152 -18v168q16 10 217 10q188 0 302 -99t114 -274v-743h-94l-78 84q-111 -92 -280 -92q-353 0 -353 348zM213 344q0 -197 236 -197q94 0 173.5 38t79.5 96v272q-113 29 -260 29 q-229 0 -229 -238zM307 1407q0 41 6 72.5t24.5 66.5t60.5 54.5t105.5 19.5t104.5 -19.5t58.5 -54.5t23.5 -65.5t6 -73.5q0 -41 -6 -71.5t-23.5 -65.5t-58.5 -53.5t-104 -18.5q-119 0 -158 59.5t-39 149.5zM365 1407q0 -78 27.5 -123t111.5 -45t111.5 45t27.5 123t-27.5 124 t-111.5 46t-111.5 -45t-27.5 -125z" />
<glyph unicode="&#xe6;" horiz-adv-x="1597" d="M57 356q0 184 91.5 262t277.5 78q160 0 276 -41v107q0 205 -354 205q-63 0 -119 -6v145q49 14 150 14q307 0 418 -176q94 172 346 172q207 0 292 -110.5t85 -374.5v-162h-643q10 -176 62 -251t208 -75q106 0 256 35v-170q-84 -25 -289 -24q-197 0 -317 163 q-143 -156 -348 -155q-211 0 -301.5 88t-90.5 276zM213 344q0 -104 58.5 -148t177.5 -44q104 0 169.5 35.5t83.5 95.5v229q-111 45 -266 45q-121 0 -172 -52t-51 -161zM874 590h486q-2 55 -3 76.5t-5 65.5t-8.5 60.5t-12.5 48t-20.5 43t-29.5 30t-39.5 24.5t-53.5 12t-68 6 q-68 0 -112.5 -17t-70.5 -42t-39 -78t-17.5 -98t-6.5 -131z" />
<glyph unicode="&#xe7;" horiz-adv-x="665" d="M74 553q0 172 26.5 285.5t84 173t127 82t171.5 22.5h19q43 0 86 -6v-174q-33 20 -105 20q-70 0 -107.5 -10t-75.5 -49t-53.5 -124t-15.5 -226q0 -113 13.5 -187.5t31 -114.5t55.5 -60.5t66.5 -23.5t85.5 -3q29 0 105 14v-174q-47 -6 -96 -6h-19q-100 0 -168.5 23.5 t-123 84t-81 172t-26.5 281.5zM307 -244q0 45 22.5 80t59.5 35q53 0 83 -27.5t30 -101.5q0 -80 -40 -153.5t-120 -110.5v37q94 49 107 145l-25 -4h-21q-49 0 -72.5 28.5t-23.5 71.5z" />
<glyph unicode="&#xe8;" horiz-adv-x="960" d="M78 635q0 229 112.5 355t305.5 126q188 0 287.5 -124t99.5 -400v-123h-643q4 -176 77.5 -246.5t237.5 -70.5q90 0 213 30v-178q-49 -12 -213 -12h-49q-233 0 -330.5 138t-97.5 505zM170 1391v151l496 -213v-59zM236 590h495q-2 121 -19.5 196.5t-51 111.5t-70.5 47 t-96 11q-82 0 -134.5 -25.5t-78 -80.5t-33.5 -111.5t-12 -148.5z" />
<glyph unicode="&#xe9;" horiz-adv-x="960" d="M78 635q0 229 112.5 355t305.5 126q188 0 287.5 -124t99.5 -400v-123h-643q4 -176 77.5 -246.5t237.5 -70.5q90 0 213 30v-178q-49 -12 -213 -12h-49q-233 0 -330.5 138t-97.5 505zM236 590h495q-2 121 -19.5 196.5t-51 111.5t-70.5 47t-96 11q-82 0 -134.5 -25.5 t-78 -80.5t-33.5 -111.5t-12 -148.5zM295 1270v59l493 215v-153z" />
<glyph unicode="&#xea;" horiz-adv-x="960" d="M78 635q0 229 112.5 355t305.5 126q188 0 287.5 -124t99.5 -400v-123h-643q4 -176 77.5 -246.5t237.5 -70.5q90 0 213 30v-178q-49 -12 -213 -12h-49q-233 0 -330.5 138t-97.5 505zM160 1251v64l321 303l320 -305v-62l-320 213zM236 590h495q-2 121 -19.5 196.5 t-51 111.5t-70.5 47t-96 11q-82 0 -134.5 -25.5t-78 -80.5t-33.5 -111.5t-12 -148.5z" />
<glyph unicode="&#xeb;" horiz-adv-x="960" d="M78 635q0 229 112.5 355t305.5 126q188 0 287.5 -124t99.5 -400v-123h-643q4 -176 77.5 -246.5t237.5 -70.5q90 0 213 30v-178q-49 -12 -213 -12h-49q-233 0 -330.5 138t-97.5 505zM121 1411q0 47 31.5 78t83.5 31q49 0 80.5 -31t31.5 -78q0 -51 -31.5 -84t-80.5 -33 q-51 0 -83 33t-32 84zM236 590h495q-2 121 -19.5 196.5t-51 111.5t-70.5 47t-96 11q-82 0 -134.5 -25.5t-78 -80.5t-33.5 -111.5t-12 -148.5zM614 1411q0 47 32 78t83 31q49 0 81 -31t32 -78q0 -51 -32 -84t-81 -33q-51 0 -83 33t-32 84z" />
<glyph unicode="&#xec;" horiz-adv-x="393" d="M-113 1391v151l496 -213v-59zM113 0v1100h161v-1100h-161z" />
<glyph unicode="&#xed;" horiz-adv-x="393" d="M12 1270v59l494 215v-153zM113 0v1100h161v-1100h-161z" />
<glyph unicode="&#xee;" horiz-adv-x="393" d="M-123 1251v64l322 303l319 -305v-62l-319 213zM113 0v1100h161v-1100h-161z" />
<glyph unicode="&#xef;" horiz-adv-x="393" d="M-164 1411q0 47 32 78t83 31q49 0 80.5 -31t31.5 -78q0 -51 -31.5 -84t-80.5 -33q-51 0 -83 33t-32 84zM113 0v1100h161v-1100h-161zM330 1411q0 47 31.5 78t82.5 31q49 0 81 -31t32 -78q0 -51 -31.5 -84t-81.5 -33q-51 0 -82.5 33t-31.5 84z" />
<glyph unicode="&#xf0;" horiz-adv-x="1169" d="M98 471q0 229 85 327.5t323 98.5q270 0 344 -125v41q0 229 -74 338l-168 -102l-47 71l156 92q-98 72 -234 72q-96 0 -157 -12v158q31 16 176 16q213 0 356 -148l168 105l47 -70l-160 -100q55 -96 71.5 -190.5t16.5 -231.5q0 -45 2.5 -132t2.5 -128q0 -102 -8.5 -175 t-36 -151t-76.5 -125t-136 -77.5t-208 -30.5q-242 0 -342.5 112.5t-100.5 366.5zM252 432q0 -172 75.5 -231.5t215.5 -59.5q162 0 230.5 62.5t74.5 247.5q-2 174 -68.5 237.5t-224.5 63.5q-172 0 -237.5 -71t-65.5 -249z" />
<glyph unicode="&#xf1;" horiz-adv-x="1026" d="M113 0v1100h161v-78q86 92 334 92q129 0 218 -90t89 -244v-780h-155v725q0 231 -244 231q-121 0 -183.5 -53t-62.5 -176v-727h-157zM217 1370v88q66 55 148 55q45 0 149 -39.5t176 -39.5q88 0 139 45v-84q-68 -57 -149 -58q-43 0 -145.5 43t-174.5 43q-84 0 -143 -53z " />
<glyph unicode="&#xf2;" horiz-adv-x="968" d="M84 553q0 172 26.5 285.5t83 173t126 82t172 22.5t171 -23.5t122 -84t78 -173t24.5 -284.5q0 -229 -45 -352t-125 -165t-225 -42q-102 0 -173 23.5t-126.5 84t-82 172t-26.5 281.5zM174 1391v151l496 -213v-59zM240 547q0 -113 13 -187.5t30.5 -114.5t55.5 -60.5 t66.5 -23.5t86.5 -3q47 0 76.5 5t65.5 26.5t55.5 61.5t32.5 113.5t13 180.5q0 133 -15 217t-50 125t-75 55t-103 14q-70 0 -108 -10t-76 -49t-53 -124t-15 -226z" />
<glyph unicode="&#xf3;" horiz-adv-x="968" d="M84 553q0 172 26.5 285.5t83 173t126 82t172 22.5t171 -23.5t122 -84t78 -173t24.5 -284.5q0 -229 -45 -352t-125 -165t-225 -42q-102 0 -173 23.5t-126.5 84t-82 172t-26.5 281.5zM240 547q0 -113 13 -187.5t30.5 -114.5t55.5 -60.5t66.5 -23.5t86.5 -3q47 0 76.5 5 t65.5 26.5t55.5 61.5t32.5 113.5t13 180.5q0 133 -15 217t-50 125t-75 55t-103 14q-70 0 -108 -10t-76 -49t-53 -124t-15 -226zM299 1270v59l494 215v-153z" />
<glyph unicode="&#xf4;" horiz-adv-x="968" d="M84 553q0 172 26.5 285.5t83 173t126 82t172 22.5t171 -23.5t122 -84t78 -173t24.5 -284.5q0 -229 -45 -352t-125 -165t-225 -42q-102 0 -173 23.5t-126.5 84t-82 172t-26.5 281.5zM164 1251v64l321 303l320 -305v-62l-320 213zM240 547q0 -113 13 -187.5t30.5 -114.5 t55.5 -60.5t66.5 -23.5t86.5 -3q47 0 76.5 5t65.5 26.5t55.5 61.5t32.5 113.5t13 180.5q0 133 -15 217t-50 125t-75 55t-103 14q-70 0 -108 -10t-76 -49t-53 -124t-15 -226z" />
<glyph unicode="&#xf5;" horiz-adv-x="968" d="M84 553q0 172 26.5 285.5t83 173t126 82t172 22.5t171 -23.5t122 -84t78 -173t24.5 -284.5q0 -229 -45 -352t-125 -165t-225 -42q-102 0 -173 23.5t-126.5 84t-82 172t-26.5 281.5zM178 1370v88q66 55 148 55q45 0 149.5 -39.5t175.5 -39.5q88 0 140 45v-84 q-68 -57 -150 -58q-43 0 -145.5 43t-173.5 43q-85 0 -144 -53zM240 547q0 -113 13 -187.5t30.5 -114.5t55.5 -60.5t66.5 -23.5t86.5 -3q47 0 76.5 5t65.5 26.5t55.5 61.5t32.5 113.5t13 180.5q0 133 -15 217t-50 125t-75 55t-103 14q-70 0 -108 -10t-76 -49t-53 -124 t-15 -226z" />
<glyph unicode="&#xf6;" horiz-adv-x="968" d="M84 553q0 172 26.5 285.5t83 173t126 82t172 22.5t171 -23.5t122 -84t78 -173t24.5 -284.5q0 -229 -45 -352t-125 -165t-225 -42q-102 0 -173 23.5t-126.5 84t-82 172t-26.5 281.5zM125 1411q0 47 31.5 78t83.5 31q49 0 80.5 -31t31.5 -78q0 -51 -31.5 -84t-80.5 -33 q-51 0 -83 33t-32 84zM240 547q0 -113 13 -187.5t30.5 -114.5t55.5 -60.5t66.5 -23.5t86.5 -3q47 0 76.5 5t65.5 26.5t55.5 61.5t32.5 113.5t13 180.5q0 133 -15 217t-50 125t-75 55t-103 14q-70 0 -108 -10t-76 -49t-53 -124t-15 -226zM618 1411q0 47 32 78t83 31 q49 0 81 -31t32 -78q0 -51 -32 -84t-81 -33q-51 0 -83 33t-32 84z" />
<glyph unicode="&#xf7;" d="M63 678v117h893v-117h-893zM403 373q0 43 30 70.5t81 27.5q43 0 71.5 -28.5t28.5 -69.5q0 -43 -28.5 -71t-71.5 -28q-53 0 -82 27t-29 72zM403 1100q0 43 30 70.5t81 27.5q43 0 71.5 -28.5t28.5 -69.5q0 -43 -28.5 -71t-71.5 -28q-53 0 -82 27t-29 72z" />
<glyph unicode="&#xf8;" horiz-adv-x="1009" d="M86 -23l98 150q-84 125 -84 414q0 168 27 278.5t84 169t126 81t171 22.5h18q156 0 240 -68l49 76h115l-99 -154q72 -137 72 -407q0 -223 -44 -344t-124 -162t-219 -41h-18q-160 0 -236 53l-45 -68h-131zM258 535q0 -178 29 -250l385 596q-53 55 -164 55q-55 0 -87 -5 t-68 -26.5t-53 -64.5t-29.5 -118.5t-12.5 -186.5zM348 182q43 -29 160 -28q59 0 96 9t75 44t56.5 115.5t18.5 209.5q0 147 -29 248z" />
<glyph unicode="&#xf9;" horiz-adv-x="1017" d="M100 354v746h162v-721q0 -229 242 -229q102 0 175 52t73 175v723h149v-1100h-149v100q-70 -113 -258 -112q-193 0 -293.5 97t-100.5 269zM199 1391v151l495 -213v-59z" />
<glyph unicode="&#xfa;" horiz-adv-x="1017" d="M100 354v746h162v-721q0 -229 242 -229q102 0 175 52t73 175v723h149v-1100h-149v100q-70 -113 -258 -112q-193 0 -293.5 97t-100.5 269zM324 1270v59l493 215v-153z" />
<glyph unicode="&#xfb;" horiz-adv-x="1017" d="M100 354v746h162v-721q0 -229 242 -229q102 0 175 52t73 175v723h149v-1100h-149v100q-70 -113 -258 -112q-193 0 -293.5 97t-100.5 269zM188 1251v64l322 303l319 -305v-62l-319 213z" />
<glyph unicode="&#xfc;" horiz-adv-x="1017" d="M100 354v746h162v-721q0 -229 242 -229q102 0 175 52t73 175v723h149v-1100h-149v100q-70 -113 -258 -112q-193 0 -293.5 97t-100.5 269zM150 1411q0 47 31.5 78t82.5 31q49 0 81 -31t32 -78q0 -51 -32 -84t-81 -33q-51 0 -82.5 33t-31.5 84zM643 1411q0 47 32 78t83 31 q49 0 80.5 -31t31.5 -78q0 -51 -31.5 -84t-80.5 -33q-51 0 -83 33t-32 84z" />
<glyph unicode="&#xfd;" horiz-adv-x="835" d="M31 1100h174l223 -1008l229 1008h152l-410 -1561h-129l125 461h-67zM242 1270v59l493 215v-153z" />
<glyph unicode="&#xfe;" horiz-adv-x="989" d="M106 -461v1913l164 39v-465q68 86 281 86q88 0 151.5 -29.5t101.5 -79t58.5 -127t27.5 -154.5t7 -183q0 -129 -13.5 -221.5t-48 -173.5t-105.5 -122.5t-175 -41.5q-106 0 -167.5 19t-117.5 64v-524h-164zM264 322h2q82 -164 238 -164q68 0 113 19.5t69.5 47t36.5 84 t15 102.5t3 130q0 197 -51 297t-196 100q-88 0 -137.5 -38t-92.5 -114v-464z" />
<glyph unicode="&#xff;" horiz-adv-x="835" d="M31 1100h174l223 -1008l229 1008h152l-410 -1561h-129l125 461h-67zM66 1411q0 47 31.5 78t82.5 31q49 0 81 -31t32 -78q0 -51 -32 -84t-81 -33q-51 0 -82.5 33t-31.5 84zM559 1411q0 47 32 78t83 31q49 0 80.5 -31t31.5 -78q0 -51 -31.5 -84t-80.5 -33q-51 0 -83 33 t-32 84z" />
<glyph unicode="&#x152;" horiz-adv-x="1441" d="M61 700q0 178 26 310.5t64.5 208t99 121.5t119 60.5t132.5 14.5q180 0 305 -88v80h573v-162h-413v-436h215v-164h-215v-481h413v-164h-573v76q-102 -78 -303 -82h-15q-78 0 -135 14.5t-115.5 57.5t-95.5 118.5t-59.5 205.5t-22.5 310zM217 705q0 -403 88 -480 q88 -72 211 -71q111 0 199 71q82 68 82 477q0 102 -5.5 182.5t-16.5 137.5t-23.5 98t-35 65.5t-40 40t-50 21.5t-53 7t-61.5 1q-127 0 -209 -75q-86 -78 -86 -475z" />
<glyph unicode="&#x153;" horiz-adv-x="1626" d="M86 553q0 172 26.5 284.5t83 173t126 83t174.5 22.5h16q231 0 311 -162q115 162 336 162q188 0 288.5 -123t100.5 -401v-123h-645q8 -178 80 -247.5t236 -69.5q88 0 215 30v-178q-49 -12 -215 -12h-48q-131 0 -211.5 34.5t-132.5 123.5q-43 -90 -121.5 -124t-205.5 -34 h-15q-100 0 -169.5 23.5t-124 84t-80 172t-25.5 281.5zM240 547q0 -113 13 -187.5t30.5 -114.5t56.5 -60.5t68.5 -23.5t87.5 -3q59 0 95 10t72.5 45t54 117t17.5 215t-15 217t-49 125t-74 55t-101 14q-70 0 -109 -10t-77 -49t-54 -124t-16 -226zM901 590h496 q-4 121 -21.5 196.5t-51.5 111.5t-70.5 47t-96.5 11q-66 0 -113 -19t-73.5 -48t-42 -80t-20.5 -98t-7 -121z" />
<glyph unicode="&#x178;" horiz-adv-x="974" d="M8 1407h191l225 -598l61 -199l64 199l227 598h191l-389 -883v-524h-183v524zM125 1720q0 47 31.5 78t83.5 31q49 0 80.5 -31t31.5 -78q0 -51 -31.5 -83.5t-80.5 -32.5q-51 0 -83 32.5t-32 83.5zM618 1720q0 47 32 78t83 31q49 0 81 -31t32 -78q0 -51 -32 -83.5t-81 -32.5 q-51 0 -83 32.5t-32 83.5z" />
<glyph unicode="&#x2c6;" horiz-adv-x="985" d="M172 1251v64l322 303l319 -305v-62l-319 213z" />
<glyph unicode="&#x2dc;" horiz-adv-x="960" d="M172 1370v88q66 55 147 55q45 0 149.5 -39.5t176.5 -39.5q88 0 139 45v-84q-68 -57 -149 -58q-43 0 -145.5 43t-174.5 43q-84 0 -143 -53z" />
<glyph unicode="&#x2000;" horiz-adv-x="964" />
<glyph unicode="&#x2001;" horiz-adv-x="1929" />
<glyph unicode="&#x2002;" horiz-adv-x="964" />
<glyph unicode="&#x2003;" horiz-adv-x="1929" />
<glyph unicode="&#x2004;" horiz-adv-x="643" />
<glyph unicode="&#x2005;" horiz-adv-x="481" />
<glyph unicode="&#x2006;" horiz-adv-x="321" />
<glyph unicode="&#x2007;" horiz-adv-x="321" />
<glyph unicode="&#x2008;" horiz-adv-x="239" />
<glyph unicode="&#x2009;" horiz-adv-x="385" />
<glyph unicode="&#x200a;" horiz-adv-x="106" />
<glyph unicode="&#x2010;" horiz-adv-x="432" d="M66 711v106h301v-106h-301z" />
<glyph unicode="&#x2011;" horiz-adv-x="432" d="M66 711v106h301v-106h-301z" />
<glyph unicode="&#x2012;" horiz-adv-x="432" d="M66 711v106h301v-106h-301z" />
<glyph unicode="&#x2013;" horiz-adv-x="772" d="M66 711v106h645v-106h-645z" />
<glyph unicode="&#x2014;" horiz-adv-x="1280" d="M66 711v106h1151v-106h-1151z" />
<glyph unicode="&#x2018;" horiz-adv-x="387" d="M98 1341q0 80 39 154t119 113v-43q-88 -31 -106 -144q10 2 23 5.5t20 3.5q47 0 71.5 -33t24.5 -78q0 -43 -21.5 -77t-58.5 -34q-111 0 -111 133z" />
<glyph unicode="&#x2019;" horiz-adv-x="391" d="M98 1450q0 45 22.5 78t59.5 33q53 0 83 -28t30 -99q0 -74 -44 -150t-116 -115v37q68 35 105 146l-25 -4h-20q-95 0 -95 102z" />
<glyph unicode="&#x201a;" horiz-adv-x="391" d="M98 20.5q0 45.5 22.5 78t59.5 32.5q113 0 113 -129q0 -80 -40 -152.5t-122 -113.5v39q94 51 107 147l-25 -6h-23q-47 0 -69.5 29.5t-22.5 75z" />
<glyph unicode="&#x201c;" horiz-adv-x="776" d="M98 1341q0 80 39 154t119 113v-43q-88 -31 -106 -144q10 2 23 5.5t20 3.5q47 0 71.5 -33t24.5 -78q0 -43 -21.5 -77t-58.5 -34q-111 0 -111 133zM485 1341q0 80 39 154t119 113v-43q-88 -31 -106 -144q10 2 23 5.5t20 3.5q47 0 71.5 -33t24.5 -78q0 -43 -21.5 -77 t-58.5 -34q-111 0 -111 133z" />
<glyph unicode="&#x201d;" horiz-adv-x="784" d="M98 1450q0 45 22.5 78t59.5 33q53 0 83 -28t30 -99q0 -74 -44 -150t-116 -115v37q68 35 105 146l-25 -4h-20q-95 0 -95 102zM489 1450q0 45 21.5 78t60.5 33q53 0 83 -28t30 -99q0 -74 -44 -150t-116 -115v37q68 35 105 146l-25 -4h-20q-95 0 -95 102z" />
<glyph unicode="&#x201e;" horiz-adv-x="784" d="M98 20.5q0 45.5 22.5 78t59.5 32.5q113 0 113 -129q0 -80 -40 -152.5t-122 -113.5v39q94 51 107 147l-25 -6h-23q-47 0 -69.5 29.5t-22.5 75zM489 20.5q0 45.5 21.5 78t60.5 32.5q113 0 113 -129q0 -80 -40 -152.5t-122 -113.5v39q94 51 107 147l-25 -6h-22 q-47 0 -70 29.5t-23 75z" />
<glyph unicode="&#x2022;" horiz-adv-x="923" d="M74 694q0 156 110.5 265.5t266 109.5t266 -109.5t110.5 -265.5q0 -158 -110.5 -267.5t-265.5 -109.5q-158 0 -267.5 109.5t-109.5 267.5z" />
<glyph unicode="&#x2026;" horiz-adv-x="1730" d="M68 90q0 43 29.5 70.5t80.5 27.5q43 0 72 -28.5t29 -69.5q0 -43 -29 -70.5t-72 -27.5q-53 0 -81.5 26.5t-28.5 71.5zM760 90q0 43 29.5 70.5t80.5 27.5q43 0 72 -28.5t29 -69.5q0 -43 -29 -70.5t-72 -27.5q-53 0 -81.5 26.5t-28.5 71.5zM1452 90q0 43 29.5 70.5 t81.5 27.5q43 0 71.5 -28.5t28.5 -69.5q0 -43 -28.5 -70.5t-71.5 -27.5q-53 0 -82 26.5t-29 71.5z" />
<glyph unicode="&#x202f;" horiz-adv-x="385" />
<glyph unicode="&#x2039;" horiz-adv-x="409" d="M51 709v110l307 207v-94l-270 -160l270 -164v-96z" />
<glyph unicode="&#x203a;" horiz-adv-x="411" d="M51 512v100l262 162l-262 160v92l309 -197v-114z" />
<glyph unicode="&#x205f;" horiz-adv-x="481" />
<glyph unicode="&#x20ac;" horiz-adv-x="923" d="M33 504v104h112v201h-112v100h117q10 133 39.5 227.5t68.5 147.5t97.5 84t111.5 39t127 8q178 0 235 -14l-51 -156q-55 8 -127 8h-39q-49 0 -77.5 -3t-65.5 -12t-58.5 -31.5t-44 -60.5t-36 -96.5t-19.5 -140.5h363l-31 -100h-340v-180q0 -18 4 -21h271l-33 -104h-236 q10 -125 36 -200t75 -105.5t90 -37.5t123 -7q147 0 205 14v-164q-51 -12 -250 -12q-92 0 -156.5 17.5t-128 68.5t-102.5 157.5t-51 268.5h-117z" />
<glyph unicode="&#x2122;" horiz-adv-x="1296" d="M72 1309v98h413v-98h-149v-570h-113v570h-151zM676 739v668h137l125 -469l115 469h127v-668h-99v418l-110 -418h-74l-119 418v-418h-102z" />
<glyph unicode="&#xe000;" horiz-adv-x="1100" d="M0 1100h1100v-1100h-1100v1100z" />
<glyph unicode="&#xfb01;" horiz-adv-x="919" d="M23 987v113h116v82q0 94 30 162.5t77 101.5t93 47t93 14q16 0 57 -4v-137q-6 0 -20 1t-25 1q-63 0 -105 -37t-42 -145v-86h195v-113h-195v-987h-158v987h-116zM616 1386q0 45 32 75t77 30q43 0 72.5 -29.5t29.5 -75.5q0 -41 -30.5 -70.5t-71.5 -29.5t-75 30.5t-34 69.5z M637 0v1100h162v-1100h-162z" />
<glyph unicode="&#xfb02;" horiz-adv-x="917" d="M23 987v113h116v82q0 94 30 162.5t77 101.5t93 47t93 14q16 0 57 -4v-137q-6 0 -20 1t-25 1q-63 0 -105 -37t-42 -145v-86h195v-113h-195v-987h-158v987h-116zM633 0v1497l164 39v-1536h-164z" />
<glyph unicode="&#xfb03;" horiz-adv-x="1441" d="M1141 1386q0 45 32 75t77 30q43 0 72.5 -29.5t29.5 -75.5q0 -41 -30.5 -70.5t-71.5 -29.5t-75 30.5t-34 69.5zM1162 0v1100h161v-1100h-161zM547 987v113h116v82q0 94 30 162.5t77 101.5t93 47t93 14q16 0 57 -4v-137q-6 0 -20 1t-25 1q-63 0 -105 -37t-42 -145v-86h195 v-113h-195v-987h-158v987h-116zM23 987v113h116v82q0 94 30 162.5t77 101.5t93 47t93 14q16 0 57 -4v-137q-6 0 -20 1t-25 1q-63 0 -105 -37t-42 -145v-86h195v-113h-195v-987h-158v987h-116z" />
<glyph unicode="&#xfb04;" horiz-adv-x="1439" d="M1158 0v1497l163 39v-1536h-163zM547 987v113h116v82q0 94 30 162.5t77 101.5t93 47t93 14q16 0 57 -4v-137q-6 0 -20 1t-25 1q-63 0 -105 -37t-42 -145v-86h195v-113h-195v-987h-158v987h-116zM23 987v113h116v82q0 94 30 162.5t77 101.5t93 47t93 14q16 0 57 -4v-137 q-6 0 -20 1t-25 1q-63 0 -105 -37t-42 -145v-86h195v-113h-195v-987h-158v987h-116z" />
</font>
</defs>
</svg>
